<svg width="384" height="127" viewBox="0 0 384 127" fill="none" xmlns="http://www.w3.org/2000/svg">
<path d="M155.125 25.3064H166.328V79.9378C166.328 82.7121 167.306 85.0773 169.263 87.0335C171.219 88.9897 173.566 89.9678 176.305 89.9678H213.917V101.172H176.305C172.428 101.172 168.871 100.229 165.635 98.3439C162.434 96.4233 159.873 93.8624 157.952 90.6614C156.067 87.4248 155.125 83.8502 155.125 79.9378V25.3064Z" fill="white"/>
<path d="M221.173 30.8549C221.173 28.9342 221.849 27.2981 223.201 25.9466C224.552 24.595 226.188 23.9192 228.109 23.9192C230.029 23.9192 231.666 24.595 233.017 25.9466C234.369 27.2981 235.044 28.9342 235.044 30.8549C235.044 32.7755 234.369 34.4116 233.017 35.7632C231.666 37.1147 230.029 37.7905 228.109 37.7905C226.188 37.7905 224.552 37.1147 223.201 35.7632C221.849 34.4116 221.173 32.7755 221.173 30.8549ZM222.454 45.8999H233.764V101.172H222.454V45.8999Z" fill="white"/>
<path d="M246.035 65.7464C246.035 62.083 246.924 58.7575 248.702 55.7698C250.516 52.7821 252.935 50.3991 255.958 48.6208C258.981 46.8068 262.325 45.8999 265.988 45.8999H285.568C288.662 45.8999 291.312 47.0024 293.517 49.2076C295.722 51.4128 296.825 54.0626 296.825 57.1569V101.812C296.825 105.475 295.918 108.819 294.104 111.842C292.326 114.865 289.925 117.266 286.902 119.044C283.878 120.858 280.535 121.765 276.872 121.765H249.609V110.508H276.712C279.166 110.508 281.246 109.654 282.954 107.947C284.696 106.275 285.568 104.248 285.568 101.865V57.1569H265.988C263.605 57.1569 261.56 58.0105 259.853 59.7178C258.145 61.3894 257.292 63.4346 257.292 65.8531V81.1649C257.292 83.5479 258.145 85.6108 259.853 87.3536C261.56 89.0608 263.605 89.9145 265.988 89.9145H279.166V101.172H265.988C262.325 101.172 258.981 100.282 255.958 98.504C252.935 96.69 250.516 94.2893 248.702 91.3016C246.924 88.2784 246.035 84.935 246.035 81.2716V65.7464Z" fill="white"/>
<path d="M308.348 30.8549C308.348 28.9342 309.024 27.2981 310.376 25.9466C311.727 24.595 313.363 23.9192 315.284 23.9192C317.204 23.9192 318.841 24.595 320.192 25.9466C321.544 27.2981 322.219 28.9342 322.219 30.8549C322.219 32.7755 321.544 34.4116 320.192 35.7632C318.841 37.1147 317.204 37.7905 315.284 37.7905C313.363 37.7905 311.727 37.1147 310.376 35.7632C309.024 34.4116 308.348 32.7755 308.348 30.8549ZM309.629 45.8999H320.939V101.172H309.629V45.8999Z" fill="url(#paint0_linear_403_40)"/>
<path d="M333.21 65.7464C333.21 62.083 334.099 58.7575 335.877 55.7698C337.691 52.7821 340.11 50.3991 343.133 48.6208C346.156 46.8068 349.5 45.8999 353.163 45.8999H384V101.172H372.743V57.1569H353.163C350.78 57.1569 348.735 58.0105 347.028 59.7178C345.32 61.3894 344.467 63.4346 344.467 65.8531V81.1115C344.467 83.5301 345.32 85.6108 347.028 87.3536C348.735 89.0608 350.78 89.9145 353.163 89.9145H366.341V101.172H353.163C349.5 101.172 346.156 100.282 343.133 98.504C340.11 96.69 337.691 94.2715 335.877 91.2482C334.099 88.225 333.21 84.8817 333.21 81.2182V65.7464Z" fill="url(#paint1_linear_403_40)"/>
<path fill-rule="evenodd" clip-rule="evenodd" d="M65.1565 16.6802C61.0459 14.305 55.9799 14.305 51.8692 16.6802L21.5345 34.2079C17.4281 36.5807 14.8988 40.9633 14.8988 45.7059V80.79C14.8988 85.5326 17.4281 89.9153 21.5345 92.288L27.8275 95.9241L64.9572 74.4702C68.9652 72.1543 71.4339 67.8767 71.4339 63.2478C71.4339 58.9487 69.245 54.9118 65.7308 52.5089L79.2563 44.6937C83.7475 49.7257 86.3327 56.3028 86.3327 63.2478C86.3327 73.1977 81.0263 82.3924 72.4111 87.3704L42.7174 104.528L27.8275 113.131L14.0807 105.188C5.36706 100.153 0 90.8536 0 80.79V45.7059C0 35.6423 5.36703 26.3426 14.0806 21.3078L44.4154 3.78003C53.138 -1.26001 63.8878 -1.26001 72.6104 3.78004L89.1959 13.3633L74.3024 21.9648L65.1565 16.6802Z" fill="url(#paint2_linear_403_40)"/>
<path d="M44.5873 39.1258C35.9699 44.1025 30.6617 53.298 30.6617 63.2493C30.6617 70.1966 33.2489 76.7757 37.7433 81.808L51.2712 73.9915C47.717 71.5943 45.5605 67.5752 45.5605 63.2493C45.5605 58.6202 48.0298 54.3427 52.0383 52.0276L58.5014 48.2951L58.5048 48.2975L89.1942 30.5694L95.4912 34.2079C99.5976 36.5807 102.127 40.9633 102.127 45.7059V80.79C102.127 85.5326 99.5976 89.9153 95.4912 92.288L65.1565 109.816C61.0459 112.191 55.9799 112.191 51.8692 109.816L42.7174 104.528L27.8275 113.131L44.4154 122.716C53.138 127.756 63.8878 127.756 72.6104 122.716L102.945 105.188C111.659 100.153 117.026 90.8536 117.026 80.79V45.7059C117.026 35.6423 111.659 26.3426 102.945 21.3077L89.1959 13.3633L74.3024 21.9648L44.5873 39.1258Z" fill="url(#paint3_linear_403_40)"/>
<defs>
<linearGradient id="paint0_linear_403_40" x1="58.5129" y1="0" x2="58.5129" y2="126.496" gradientUnits="userSpaceOnUse">
<stop stop-color="#FF4B1F"/>
<stop offset="1" stop-color="#FF9068"/>
</linearGradient>
<linearGradient id="paint1_linear_403_40" x1="58.5129" y1="0" x2="58.5129" y2="126.496" gradientUnits="userSpaceOnUse">
<stop stop-color="#FF4B1F"/>
<stop offset="1" stop-color="#FF9068"/>
</linearGradient>
<linearGradient id="paint2_linear_403_40" x1="58.5129" y1="0" x2="58.5129" y2="126.496" gradientUnits="userSpaceOnUse">
<stop stop-color="#FF4B1F"/>
<stop offset="1" stop-color="#FF9068"/>
</linearGradient>
<linearGradient id="paint3_linear_403_40" x1="58.5129" y1="0" x2="58.5129" y2="126.496" gradientUnits="userSpaceOnUse">
<stop stop-color="#FF4B1F"/>
<stop offset="1" stop-color="#FF9068"/>
</linearGradient>
</defs>
</svg>
