<svg width="118" height="127" viewBox="0 0 118 127" fill="none" xmlns="http://www.w3.org/2000/svg">
<path fill-rule="evenodd" clip-rule="evenodd" d="M65.6448 16.6802C61.5342 14.305 56.4682 14.305 52.3575 16.6802L22.0228 34.2079C17.9164 36.5807 15.3871 40.9633 15.3871 45.7059V80.79C15.3871 85.5326 17.9164 89.9153 22.0228 92.288L28.3158 95.9241L65.4455 74.4702C69.4535 72.1543 71.9222 67.8767 71.9222 63.2478C71.9222 58.9487 69.7332 54.9118 66.2191 52.5089L79.7445 44.6937C84.2357 49.7257 86.821 56.3027 86.821 63.2478C86.821 73.1977 81.5146 82.3924 72.8994 87.3704L43.2057 104.528L28.3158 113.131L14.5689 105.188C5.85534 100.153 0.488281 90.8536 0.488281 80.79V45.7059C0.488281 35.6423 5.85531 26.3426 14.5689 21.3078L44.9036 3.78003C53.6263 -1.26001 64.3761 -1.26001 73.0987 3.78004L89.6842 13.3633L74.7907 21.9648L65.6448 16.6802Z" fill="url(#paint0_linear_403_43)"/>
<path d="M45.0756 39.1258C36.4582 44.1025 31.1499 53.298 31.1499 63.2493C31.1499 70.1966 33.7372 76.7757 38.2316 81.808L51.7595 73.9915C48.2053 71.5943 46.0488 67.5752 46.0488 63.2493C46.0488 58.6202 48.518 54.3427 52.5266 52.0276L58.9897 48.2951L58.993 48.2975L89.6825 30.5694L95.9795 34.2079C100.086 36.5807 102.615 40.9633 102.615 45.7059V80.79C102.615 85.5326 100.086 89.9153 95.9795 92.288L65.6448 109.816C61.5341 112.191 56.4682 112.191 52.3575 109.816L43.2057 104.528L28.3158 113.131L44.9037 122.716C53.6263 127.756 64.376 127.756 73.0987 122.716L103.433 105.188C112.147 100.153 117.514 90.8536 117.514 80.79V45.7059C117.514 35.6423 112.147 26.3426 103.433 21.3077L89.6842 13.3633L74.7907 21.9648L45.0756 39.1258Z" fill="url(#paint1_linear_403_43)"/>
<defs>
<linearGradient id="paint0_linear_403_43" x1="59.0012" y1="0" x2="59.0012" y2="126.496" gradientUnits="userSpaceOnUse">
<stop stop-color="#FF4B1F"/>
<stop offset="1" stop-color="#FF9068"/>
</linearGradient>
<linearGradient id="paint1_linear_403_43" x1="59.0012" y1="0" x2="59.0012" y2="126.496" gradientUnits="userSpaceOnUse">
<stop stop-color="#FF4B1F"/>
<stop offset="1" stop-color="#FF9068"/>
</linearGradient>
</defs>
</svg>
